<?xml version="1.0" encoding="UTF-8"?>
<!DOCTYPE svg PUBLIC "-//W3C//DTD SVG 1.1//EN" "http://www.w3.org/Graphics/SVG/1.1/DTD/svg11.dtd">
<!-- Creator: CorelDRAW 2019 (64-Bit) -->
<svg xmlns="http://www.w3.org/2000/svg" xml:space="preserve" width="134.771mm" height="134.771mm" version="1.1" shape-rendering="geometricPrecision" text-rendering="geometricPrecision" image-rendering="optimizeQuality" fill-rule="evenodd" clip-rule="evenodd"
viewBox="0 0 10865 10865"
 xmlns:xlink="http://www.w3.org/1999/xlink"
 xmlns:xodm="http://www.corel.com/coreldraw/odm/2003">
 <g id="Capa_x0020_1">
  <metadata id="CorelCorpID_0Corel-Layer"/>
  <circle fill="#FEFEFE" stroke="#373435" stroke-width="16" stroke-miterlimit="22.9256" cx="5433" cy="5433" r="5384"/>
  <g id="_1810107191456">
   <path fill="#65AF26" d="M6725 2959l-2592 0c-1,31 2,41 3,63 17,245 -8,939 -8,1203 1,638 -8,1376 359,1922 122,182 124,154 221,262 141,156 577,415 715,427 92,8 503,-225 630,-337 204,-181 300,-283 432,-546 308,-617 260,-1627 241,-2344 -6,-212 12,-446 0,-651z"/>
   <g>
    <path fill="#E2001A" d="M7744 6043c-38,15 -78,47 -130,64 -62,20 -81,-37 -122,-52 -13,294 -52,428 -201,609 -367,444 -1287,602 -1858,603 -436,1 -1007,-102 -1369,-259 -116,-50 -298,-151 -382,-234 -204,-200 -308,-347 -308,-720 -133,71 -48,91 -254,-13 -37,505 325,970 736,1224 871,540 2242,531 3149,4 306,-178 562,-471 676,-808 36,-105 75,-298 64,-418z"/>
    <path fill="#E2001A" d="M2442 4708c1,596 360,677 685,954 96,82 204,151 201,351l120 -102c279,-339 -385,-512 -568,-835 -185,-326 -27,-714 155,-1003 79,-125 146,-192 189,-258l-181 -277c-96,25 -327,347 -399,481 -99,184 -202,433 -201,689z"/>
    <path fill="#E2001A" d="M7638 3815c17,29 54,68 76,96 26,33 47,64 70,99 47,69 86,130 128,210 82,156 153,335 153,549 0,335 -244,500 -428,636 -120,89 -391,252 -247,473 22,34 109,119 145,136 -20,-260 265,-399 444,-533 207,-156 365,-260 423,-567 56,-296 -29,-594 -144,-822 -82,-162 -295,-485 -443,-559 -24,81 -132,212 -177,282z"/>
    <path fill="#E2001A" d="M3279 4406c0,157 55,364 138,457 18,-28 32,-163 35,-195 81,47 128,108 210,152 -19,-85 -63,-162 -63,-258 0,-292 342,-482 422,-712 48,-137 57,-288 48,-434l-218 -145c-19,40 -23,117 -37,168 -43,156 -132,231 -209,322 -19,23 -29,38 -50,59 -154,150 -276,354 -276,585z"/>
    <path fill="#E2001A" d="M6796 3416c-15,158 7,369 72,496 65,126 328,357 381,536 52,174 -29,245 -48,373 76,-47 142,-115 199,-148 17,25 19,54 24,94 2,16 4,40 7,55l18 40c194,-257 162,-624 -4,-875 -20,-30 -35,-51 -57,-76 -126,-145 -243,-251 -316,-408 -37,-79 -32,-159 -58,-231l-218 144z"/>
    <path fill="#E2001A" d="M6788 3363c128,-54 408,-276 243,-471 -69,-81 -218,-34 -239,66 -15,74 0,309 -5,405z"/>
    <path fill="#E2001A" d="M4072 3363l-1 -432c-51,-35 -102,-119 -200,-73 -57,27 -93,118 -89,196 7,131 223,284 290,309z"/>
    <path fill="#E2001A" d="M3120 5984c35,34 93,65 151,70 41,-73 17,-166 -36,-207 -47,38 -81,91 -115,137z"/>
    <path fill="#E2001A" d="M7588 6054c49,0 116,-35 150,-66 -13,-28 -83,-122 -109,-140 -59,47 -77,118 -41,206z"/>
   </g>
   <g>
    <path fill="#F8E111" d="M3776 4951c-107,-22 -200,-124 -284,-157l-40 223c-44,-34 -67,-94 -107,-137 -130,3 -324,136 -386,202 120,269 838,453 530,843 -45,57 -79,75 -74,183 3,64 15,170 40,224 164,-12 426,-150 718,96 79,66 143,132 200,247 27,55 45,102 59,170 50,234 -79,199 248,259 80,15 158,29 239,39 171,20 340,50 516,49 170,0 858,-80 978,-142 27,-239 45,-444 282,-623 303,-229 471,-129 717,-94 36,-100 43,-214 36,-325l-91 -109c-250,-407 458,-555 548,-817 -61,-62 -263,-203 -391,-202 -17,25 -28,42 -43,66 -20,30 -29,47 -62,69l-38 -220c-26,11 -47,28 -69,42 -62,41 -147,97 -214,115 176,-482 148,-481 -125,-818l-138 -200c-2,-3 -3,-6 -5,-8l-25 -33c-35,758 99,1714 -379,2339 -42,55 -76,101 -119,147 -121,130 -307,256 -476,345 -52,27 -337,151 -387,152 -57,1 -331,-122 -388,-151 -363,-184 -642,-461 -789,-841 -110,-285 -157,-580 -175,-912 -9,-175 -11,-355 -11,-531 0,-174 13,-376 -1,-547l-160 230c-148,180 -270,281 -233,528 18,119 73,201 99,297z"/>
    <path fill="#F8E111" d="M4843 2185c49,30 82,37 101,102 81,271 -399,503 -797,254 -78,-49 -53,-39 -97,-84 -13,-14 -8,-9 -19,-16l-248 233c-34,34 -207,218 -250,240 12,-213 -166,-273 -289,-151 -28,28 -88,117 -112,166 -104,207 -99,474 7,668 42,76 123,176 188,222 26,18 57,40 84,52 141,-144 415,-347 375,-620 -7,-45 -58,-82 -68,-172 -32,-285 287,-361 370,-167l2659 3c26,-5 41,-34 67,-58 23,-22 41,-35 75,-47 140,-47 252,85 253,233 1,117 -54,156 -64,186 -58,164 113,404 236,515l134 124c57,-21 127,-79 158,-112 439,-466 46,-1181 -200,-1033 -67,40 -78,90 -81,194l-489 -480c-58,32 -9,29 -114,98 -144,95 -345,136 -518,98 -124,-27 -206,-84 -256,-166 -91,-150 -24,-214 70,-284 -77,-58 -199,-76 -308,-68 -95,7 -174,37 -247,91l-31 22c-87,-55 -143,-102 -278,-113 -104,-8 -251,12 -311,71z"/>
    <path fill="#F8E111" d="M3953 7813c86,75 30,0 206,184l182 229c50,57 133,163 208,203 127,67 224,-21 278,-88 25,165 48,238 119,352 87,-37 123,-146 169,-240 71,228 174,478 318,596 110,-68 267,-413 312,-588 2,3 5,3 6,8 1,5 4,6 5,8 24,42 66,152 148,214 88,-54 105,-225 135,-346 62,54 130,154 269,88 89,-43 149,-123 210,-200 61,-75 111,-150 177,-222 182,-199 53,-62 193,-182 15,-13 9,-7 21,-20 -241,-52 -267,-133 -353,-240 -137,21 -289,80 -531,111 -496,65 -974,54 -1463,-50 -85,-18 -184,-54 -261,-61 -73,166 -168,168 -346,245z"/>
    <path fill="#F8E111" d="M2789 5899c36,208 149,701 254,836 18,-16 106,-156 97,-214 -17,-114 -119,-445 -78,-538 18,-40 111,-122 136,-189 -182,-177 -330,-237 -509,-381 -29,-23 -35,-39 -68,-60 -56,26 -143,151 -187,230 -245,435 71,669 277,458 15,-15 33,-41 44,-64l35 -78z"/>
    <path fill="#F8E111" d="M7668 5807c130,227 200,63 84,604 -26,119 -62,123 44,292 27,44 6,17 33,35 49,-129 105,-249 145,-393 39,-142 62,-319 109,-450 33,77 43,181 195,217 332,81 310,-484 -31,-759 -85,71 -189,148 -296,218l-281 236z"/>
    <path fill="#F8E111" d="M2424 6169c34,110 224,494 285,612 52,100 103,196 159,288 118,193 272,54 275,6 -8,-40 -92,-181 -119,-236 -37,-77 -74,-164 -104,-246 -55,-148 -137,-384 -151,-551 -3,2 -7,2 -9,7 -2,7 -68,72 -127,99 -70,31 -128,29 -210,21z"/>
    <path fill="#F8E111" d="M8439 6170c-242,16 -248,-43 -338,-128 -13,24 -62,260 -78,314 -33,105 -63,200 -104,295 -39,94 -77,187 -123,275 -28,53 -161,203 28,234 135,23 170,-91 221,-178l269 -527c38,-82 101,-203 125,-285z"/>
    <path fill="#F8E111" d="M7288 2808c26,-52 32,-83 68,-112 38,-30 85,-32 126,-52 -51,-50 -117,-95 -179,-144 -64,-50 -127,-96 -192,-146 -64,-50 -128,-97 -194,-144 -59,-43 -141,-144 -217,-73 -106,98 70,182 234,357l310 282c19,17 27,19 44,32z"/>
    <path fill="#F8E111" d="M3380 2644c106,46 157,38 186,163 88,-44 198,-168 266,-230l344 -321c47,-62 -19,-200 -133,-120l-663 508z"/>
   </g>
   <g>
    <path fill="black" d="M6909 7808c-12,13 -5,7 -21,20 -141,120 -11,-17 -193,182 -66,72 -116,146 -177,222 -62,77 -121,157 -210,200 -140,67 -207,-34 -269,-88 -30,122 -47,293 -135,346 -82,-62 -124,-172 -148,-214 -1,-2 -5,-3 -5,-8 -1,-5 -4,-5 -6,-8 -45,175 -202,520 -312,588 -143,-117 -246,-368 -318,-596 -46,94 -82,203 -169,240 -71,-114 -94,-186 -119,-352 -54,67 -151,154 -278,88 -75,-39 -158,-146 -208,-203l-182 -229c-177,-184 -120,-109 -206,-184 178,-76 274,-78 346,-245 78,8 176,43 261,61 490,104 968,115 1463,50 242,-32 394,-90 531,-111 86,106 113,188 353,240zm-3420 -1410c50,-1 79,-15 122,-23 147,-26 252,-13 385,47 156,70 256,169 330,322 38,78 56,158 56,270 -64,0 -224,-58 -291,-83 -190,-70 -323,-151 -456,-292 -86,-91 -102,-142 -146,-241zm2994 616c0,-420 366,-709 771,-638 43,8 72,22 122,23 -101,191 -153,281 -343,406 -26,17 -27,17 -54,31 -111,58 -378,179 -497,179zm-4059 -845c82,8 140,10 210,-21 59,-26 125,-92 127,-99 1,-5 6,-5 9,-7 14,167 96,403 151,551 30,82 67,169 104,246 27,55 111,195 119,236 -3,48 -158,186 -275,-6 -56,-92 -106,-188 -159,-288 -62,-117 -251,-501 -285,-612zm6015 1c-24,82 -87,203 -125,285l-269 527c-51,87 -86,201 -221,178 -189,-32 -56,-181 -28,-234 46,-88 84,-181 123,-275 40,-96 71,-190 104,-295 17,-54 66,-290 78,-314 90,85 96,144 338,128zm-695 -127c11,120 -29,312 -64,418 -114,337 -370,630 -676,808 -907,527 -2277,536 -3149,-4 -410,-254 -772,-719 -736,-1224 207,105 121,84 254,13 0,373 105,520 308,720 84,82 266,183 382,234 362,157 934,260 1369,259 571,-1 1492,-159 1858,-603 149,-181 188,-315 201,-609 41,15 60,73 122,52 52,-17 92,-49 130,-64zm-155 11c-36,-88 -17,-160 41,-206 26,19 96,112 109,140 -34,32 -100,66 -150,66zm-4468 -70c34,-45 68,-99 115,-137 53,41 78,134 36,207 -58,-5 -117,-36 -151,-70zm4829 -413c107,-70 211,-147 296,-218 341,275 363,839 31,759 -151,-37 -161,-140 -195,-217 -47,131 -69,309 -109,450 -40,144 -96,263 -145,393 -27,-18 -5,9 -33,-35 -106,-169 -70,-173 -44,-292 117,-542 46,-377 -84,-604l281 -236zm-5196 406c-11,23 -29,49 -44,64 -206,211 -522,-23 -277,-458 44,-79 132,-204 187,-230 33,22 39,37 68,60 179,143 327,204 509,381 -25,67 -118,149 -136,189 -41,93 61,424 78,538 9,58 -79,197 -97,214 -105,-136 -217,-628 -254,-836l-35 78zm1022 -1025c-26,-96 -81,-178 -99,-297 -37,-247 84,-349 233,-528l160 -230c14,170 1,373 1,547 0,176 2,357 11,531 18,332 65,627 175,912 146,379 426,656 789,841 57,29 330,152 388,151 51,-1 335,-125 387,-152 169,-89 355,-215 476,-345 43,-46 77,-91 119,-147 478,-625 344,-1582 379,-2339l25 33c2,3 3,6 5,8l138 200c273,337 302,336 125,818 68,-18 152,-74 214,-115 23,-15 43,-32 69,-42l38 220c33,-21 42,-38 62,-69 15,-24 26,-41 43,-66 128,-1 331,140 391,202 -90,262 -798,410 -548,817l91 109c7,111 -1,225 -36,325 -246,-35 -414,-135 -717,94 -238,179 -255,384 -282,623 -120,62 -808,142 -978,142 -176,0 -345,-29 -516,-49 -81,-10 -159,-24 -239,-39 -327,-60 -197,-25 -248,-259 -15,-68 -32,-115 -59,-170 -57,-115 -121,-181 -200,-247 -292,-246 -554,-108 -718,-96 -24,-54 -37,-160 -40,-224 -5,-108 30,-126 74,-183 308,-390 -410,-574 -530,-843 62,-66 256,-199 386,-202 40,43 64,103 107,137l40 -223c85,32 177,135 284,157zm3733 -1028c0,-23 25,-20 42,-31 22,-14 24,-17 43,-30 22,33 47,51 73,84 92,121 81,110 152,234 15,26 18,34 27,57 17,42 36,73 47,110 89,288 120,353 51,649 -108,-57 -232,-160 -374,-193 30,-44 66,-133 80,-198 28,-132 7,-188 5,-261 -3,-110 -40,-190 -76,-274 -10,-23 -11,-32 -21,-51 -13,-24 -48,-63 -48,-97zm-4310 531c0,204 64,273 85,350 -38,20 -59,20 -97,36 -84,35 -191,107 -266,157 -44,-190 -36,-44 -36,-302 0,-113 85,-363 137,-467 64,-127 83,-165 170,-277 30,-39 55,-44 68,-89 34,18 54,38 97,48 -5,66 -120,197 -143,376 -8,64 -14,100 -14,168zm4439 -640c46,-70 154,-201 177,-282 148,74 361,397 443,559 115,227 199,525 144,822 -58,307 -215,412 -423,567 -179,134 -463,274 -444,533 -36,-17 -123,-102 -145,-136 -144,-220 127,-384 247,-473 184,-136 428,-301 428,-636 0,-213 -71,-393 -153,-549 -42,-80 -81,-141 -128,-210 -24,-35 -44,-65 -70,-99 -22,-29 -59,-67 -76,-96zm-5197 893c-1,-256 102,-506 201,-689 72,-134 303,-456 399,-481l181 277c-43,65 -111,132 -189,258 -181,290 -340,678 -155,1003 184,323 847,496 568,835l-120 102c2,-200 -105,-269 -201,-351 -325,-277 -684,-357 -685,-954zm4572 -1436c26,73 21,152 58,231 73,157 190,264 316,408 22,25 37,46 57,76 165,252 198,618 4,875l-18 -40c-3,-15 -5,-39 -7,-55 -5,-40 -6,-69 -24,-94 -57,33 -122,101 -199,148 19,-128 100,-199 48,-373 -53,-179 -317,-411 -381,-536 -65,-127 -88,-338 -72,-496l218 -144zm-3735 1134c0,-232 123,-435 276,-585 21,-21 31,-36 50,-59 77,-91 165,-167 209,-322 14,-52 18,-128 37,-168l218 145c9,147 -1,297 -48,434 -80,230 -422,421 -422,712 0,96 44,173 63,258 -82,-44 -128,-105 -210,-152 -3,32 -17,166 -35,195 -83,-94 -138,-301 -138,-457zm3510 -1043c4,-96 -11,-331 5,-405 20,-99 170,-147 239,-66 165,195 -115,417 -243,471zm-2716 0c-67,-25 -283,-177 -290,-309 -4,-78 32,-170 89,-196 98,-46 149,38 200,73l1 432zm64 -340c-2,-22 -5,-32 -3,-63l2592 0c12,204 -5,439 0,651 19,717 67,1727 -241,2344 -132,264 -228,366 -432,546 -126,112 -537,345 -630,337 -138,-12 -574,-272 -715,-427 -97,-108 -99,-80 -221,-262 -367,-546 -358,-1284 -359,-1922 0,-264 25,-958 8,-1203zm-94 -887c114,-80 180,59 133,120l-344 321c-69,62 -178,186 -266,230 -28,-126 -80,-117 -186,-163l663 -508zm2874 74c66,48 130,95 194,144 65,50 128,96 192,146 62,49 129,94 179,144 -41,20 -88,22 -126,52 -36,29 -42,60 -68,112 -17,-13 -26,-15 -44,-32l-310 -282c-165,-176 -340,-259 -234,-357 76,-70 158,31 217,73zm-3784 718c24,-48 84,-138 112,-166 123,-122 301,-62 289,151 44,-22 216,-206 250,-240l248 -233c10,7 5,3 19,16 44,45 19,36 97,84 399,250 879,17 797,-254 -20,-65 -52,-72 -101,-102 60,-58 207,-79 311,-71 135,11 191,58 278,113l31 -22c73,-53 152,-84 247,-91 110,-8 232,10 308,68 -95,70 -161,134 -70,284 50,82 131,139 256,166 173,38 374,-3 518,-98 104,-69 56,-67 114,-98l489 480c3,-103 14,-153 81,-194 246,-148 639,567 200,1033 -31,33 -101,91 -158,112l-134 -124c-124,-111 -294,-351 -236,-515 11,-30 65,-69 64,-186 -1,-148 -112,-280 -253,-233 -34,11 -52,24 -75,47 -25,24 -41,53 -67,58l-2659 -3c-83,-194 -402,-118 -370,167 10,90 61,126 68,172 40,274 -234,477 -375,620 -27,-12 -59,-33 -84,-52 -65,-46 -147,-146 -188,-222 -106,-194 -112,-461 -7,-668zm-163 223c0,136 7,189 36,314 -30,45 -72,78 -112,118l-218 253c-35,47 -67,93 -98,143l-80 150c-15,30 -24,48 -38,83 -81,201 -124,441 -92,675 22,159 110,285 178,414 -217,324 -392,514 -185,922l88 166c9,18 9,22 19,41l66 127c17,29 28,55 45,88l238 450c42,75 94,138 200,138 93,0 217,-52 195,-147 -9,-41 -24,-58 -42,-91 -136,-245 -55,-155 -8,-354 32,23 34,42 54,78 56,96 228,323 318,394 34,27 39,30 71,62 79,78 182,148 277,206 103,63 226,110 330,165 -33,140 -255,251 -399,181 -43,-21 -43,-38 -84,-49 7,88 88,122 150,164 125,86 230,210 330,322l199 236c70,74 172,199 324,112 11,-6 18,-9 29,-20 19,-19 9,-2 19,-29l24 0c10,117 73,224 133,314 38,-10 70,-35 93,-64 26,-31 46,-72 76,-93 21,44 38,102 61,144 236,448 260,453 451,139 37,-62 110,-252 152,-283 10,38 4,17 25,47l107 110c76,-51 149,-214 157,-314 59,39 99,72 181,72 149,0 325,-295 450,-420 112,-111 213,-222 342,-310 58,-39 84,-52 101,-128 -83,22 -162,153 -380,5 -70,-48 -72,-74 -115,-138 176,-41 433,-222 571,-334l140 -125c2,-2 4,-4 6,-6 107,-107 216,-229 289,-363 25,-47 14,-48 56,-76 14,164 141,104 -5,345 -44,72 -95,157 6,209 93,48 244,57 308,-39l94 -172c12,-21 9,-17 21,-39l336 -654c103,-206 181,-348 90,-585l-66 -151c-38,-72 -114,-210 -180,-254 29,-43 74,-96 95,-146 43,-102 92,-196 98,-324 3,-62 19,-89 11,-155 -34,-286 -70,-405 -200,-646l-285 -391c-49,-49 -131,-120 -166,-172 72,-307 37,-509 -179,-750 -66,-74 -164,-131 -242,-193 -158,-126 -328,-234 -492,-353 -80,-58 -211,-165 -302,-63 -122,136 112,279 128,285 -46,173 -503,244 -657,150 -47,-29 -87,-58 -114,-104 -31,-55 -34,-111 7,-159 31,-36 91,-76 148,-81 -57,-86 -229,-126 -354,-142 -89,-11 -224,25 -292,64 -40,23 -48,33 -79,54 -31,-21 -34,-29 -72,-49 -156,-81 -320,-82 -490,-31 -58,18 -114,66 -162,79l0 24c135,31 169,79 169,205 0,30 -24,49 -46,75 -20,24 -39,36 -67,53 -172,103 -443,53 -602,-53 -47,-31 -40,-31 -70,-75 25,-37 54,-49 88,-81 157,-150 14,-293 -99,-256 -69,22 -397,257 -468,317l-311 233c-80,54 -142,122 -200,198 -29,38 -38,50 -61,96 -29,59 -72,156 -72,242z"/>
    <path fill="black" d="M5420 10781c-381,0 -933,-53 -1308,-165l-196 -57c-23,-7 -52,-13 -68,-17 -51,-13 -73,-28 -126,-43 -52,-15 -69,-23 -117,-39 -394,-133 -759,-338 -1107,-559 -23,-15 -27,-16 -51,-33l-428 -320c-33,-28 -53,-44 -85,-72 -132,-116 -273,-228 -385,-364l-262 -305c-122,-158 -248,-310 -352,-481l-128 -210c-20,-33 -40,-68 -58,-99 -21,-36 -43,-74 -59,-110l-136 -275c-107,-235 -201,-483 -268,-734 -7,-24 -9,-45 -15,-69 -13,-49 -28,-84 -38,-131l-82 -413c-11,-61 -12,-86 -19,-150 -25,-228 -47,-376 -47,-617l90 -1069c33,-175 72,-359 126,-526 13,-41 19,-81 34,-123l87 -239c125,-348 293,-681 494,-991 150,-230 313,-448 489,-658 213,-255 500,-519 766,-719l189 -137c334,-221 576,-358 941,-532l234 -92c44,-17 81,-31 123,-46 320,-115 733,-228 1063,-253 90,-7 192,-36 290,-36 482,-2 557,-40 1114,33 408,54 805,151 1190,295l179 74c24,10 39,13 63,22l115 54c88,50 189,84 275,135 22,13 29,17 54,31l108 61c167,100 345,200 496,325 36,29 58,45 95,74 34,27 60,49 93,76l223 188c12,11 8,6 19,17l418 427c149,178 424,516 539,728 14,25 16,32 30,54l119 207c54,110 122,226 167,340 47,117 106,230 145,350l157 507c192,632 217,1632 89,2259 -10,50 -16,104 -24,145 -52,271 -113,419 -179,654 -36,129 -89,242 -140,368 -60,150 -144,303 -216,448 -72,146 -167,284 -254,422 -160,253 -360,487 -562,706l-329 323c-138,109 -268,235 -415,334l-191 135c-23,15 -27,16 -51,33 -152,110 -319,188 -482,279 -342,189 -854,371 -1232,446 -431,85 -730,136 -1204,136zm-268 -10781l548 0c204,9 399,28 568,57 433,73 740,169 1157,316 232,82 445,201 661,317 24,13 30,14 55,30l246 152c232,145 442,321 651,496 162,136 312,293 453,452 21,23 18,25 37,48 27,32 49,46 76,81 216,281 433,559 597,876l111 215c12,25 15,24 29,55 109,247 224,495 292,758 44,170 110,344 134,518 14,99 39,188 48,278l47 448c1,8 2,19 3,33l0 589c-1,26 -3,46 -5,58l-32 306c-69,500 -123,711 -284,1189 -64,192 -146,372 -233,552l-249 451c-176,288 -292,411 -478,657 -80,106 -180,211 -276,304l-55 54c-2,2 -4,4 -6,6 -5,6 -9,10 -18,19 -14,14 -11,11 -25,24l-850 671c-38,25 -62,42 -103,66 -380,224 -766,401 -1185,542 -19,6 -45,12 -57,15 -52,13 -82,26 -130,39 -217,56 -447,121 -666,143l-602 50 -18 0c-385,0 -576,-2 -956,-51 -177,-23 -366,-60 -541,-111 -245,-71 -501,-138 -733,-244l-610 -296c-151,-79 -305,-180 -444,-281l-539 -439 -489 -501c-79,-84 -149,-184 -218,-277l-170 -240 -459 -845 -195 -530 -136 -516c-102,-482 -103,-831 -104,-1322l0 -23c0,-267 46,-614 106,-872l220 -758c74,-235 231,-567 357,-778 23,-38 35,-62 57,-100l158 -252c153,-230 327,-433 502,-645 229,-278 726,-699 1046,-897 26,-16 21,-12 43,-29 98,-70 204,-126 308,-187 25,-15 30,-14 57,-28 16,-8 28,-16 46,-26 245,-131 524,-264 793,-342 48,-14 70,-26 118,-39 45,-12 82,-23 131,-38l529 -123c202,-41 438,-67 681,-77z"/>
    <path fill="black" d="M5433 9416c-225,0 -463,-18 -675,-61 -68,-14 -140,-24 -211,-42l-386 -109c-234,-80 -477,-176 -686,-304 -234,-143 -453,-295 -663,-472 -8,-6 -10,-8 -20,-17 -14,-12 -18,-17 -31,-30 -24,-24 -37,-35 -62,-59 -18,-17 -13,-14 -32,-29 -136,-112 -410,-440 -491,-571 -21,-34 -27,-37 -48,-72 -139,-226 -193,-295 -316,-554 -256,-542 -364,-1135 -364,-1736 0,-229 33,-446 69,-655 55,-323 168,-635 294,-937 7,-17 10,-22 20,-40l61 -120c28,-59 57,-104 86,-155l402 -576c25,-28 27,-38 54,-66l434 -423 279 -216c194,-129 403,-267 620,-358 173,-72 345,-147 527,-197l399 -96c577,-95 686,-79 1246,-35 145,11 282,41 419,76l516 160c107,37 195,88 300,134 29,13 19,8 41,20l119 62c38,19 50,29 85,48l440 296c49,39 92,73 140,113 123,102 237,213 344,332l362 447c219,293 378,643 496,989 13,39 22,53 32,89 67,237 115,477 148,721 39,285 39,639 0,924 -20,145 -34,279 -71,424l-76 287c-50,165 -113,304 -178,462 -69,169 -159,326 -256,480l-152 222c-150,221 -342,404 -529,593 -100,101 -219,199 -337,278 -32,22 -45,33 -77,56 -150,103 -305,200 -468,281 -200,99 -403,182 -616,253 -35,12 -65,18 -94,27 -338,106 -741,159 -1097,159zm-4068 -4141c0,289 7,458 38,747 23,213 91,486 167,690l155 400c14,31 13,23 25,47 15,30 21,53 37,83 11,20 11,18 21,39 9,19 8,20 19,41 32,57 60,108 92,161l351 506c26,33 34,41 62,71 25,28 26,38 54,67 29,29 31,30 57,64 34,45 84,88 125,129 23,23 37,37 60,60 91,92 286,259 395,330l617 373c290,145 601,256 918,325 34,7 75,13 103,17 354,57 496,74 868,74 236,0 440,-37 664,-72 360,-58 708,-182 1032,-344l243 -131c179,-96 350,-221 507,-350l339 -301c21,-21 41,-38 60,-61l229 -266c20,-25 36,-44 54,-67 129,-164 246,-341 344,-525 199,-373 359,-769 426,-1191 12,-77 30,-134 36,-217 15,-208 36,-418 36,-640 0,-296 -55,-672 -138,-961l-122 -373c-88,-266 -304,-677 -469,-895l-330 -407c-72,-85 -156,-183 -243,-252l-131 -110c-254,-215 -436,-323 -730,-501l-170 -83c-30,-14 -13,-8 -39,-21 -234,-118 -631,-251 -880,-291l-433 -62c-277,-37 -818,-22 -1095,45 -38,9 -58,9 -104,17 -350,58 -801,236 -1114,407 -196,107 -376,229 -555,362 -48,35 -86,72 -133,109l-131 110c-43,36 -86,85 -127,126l-175 187c-142,144 -260,318 -372,485l-92 149c-199,316 -416,875 -475,1239 -7,46 -8,66 -17,104 -42,173 -60,381 -60,555z"/>
    <path fill="black" d="M5070 6290c155,21 215,148 264,195 14,-109 35,-198 98,-252 66,58 74,150 99,247 68,-66 125,-177 262,-188 30,233 -142,347 -361,347 -224,0 -400,-119 -362,-349zm863 -18c68,-11 91,-45 133,-51 -46,109 -118,225 -246,246 5,-95 26,-114 14,-227 -180,31 -209,89 -286,150 -20,-82 -56,-172 -115,-218 -56,41 -101,130 -117,219 -3,-2 -7,-9 -8,-6l-53 -49c-51,-42 -155,-101 -225,-88 -18,91 2,132 14,218 -122,-22 -212,-135 -246,-246 50,18 58,37 128,53 -31,-125 -78,-150 -77,-327l16 15c44,54 77,151 211,209 5,-170 3,-178 65,-314 62,17 77,44 104,92 23,40 47,89 62,133 15,-117 56,-236 127,-284 89,86 92,142 127,282 26,-96 79,-187 151,-221 82,75 67,194 79,316 87,-91 78,-12 197,-200l10 -15c10,-13 9,-12 18,-20 6,140 -32,227 -80,334zm-353 -380c-24,-564 300,-456 373,-352 111,157 -5,505 -137,557 -3,-118 -18,-241 -94,-310 -89,36 -82,74 -142,105zm-298 -4c-35,-12 -29,-24 -67,-57 -23,-20 -49,-36 -81,-45 -67,89 -91,174 -87,310 -149,-63 -260,-455 -117,-586 93,-85 227,-56 288,28 65,90 69,220 63,350zm594 -885c47,3 80,-5 111,-16 51,109 30,228 2,329 -45,-25 -69,-65 -93,-119 -28,-64 -18,-120 -21,-194zm-994 315c-69,-89 -31,-227 -14,-332 47,12 55,20 115,19 0,199 -3,185 -101,313zm1157 -344c11,-8 102,-43 125,-54 42,130 55,233 -27,350 -63,-72 -109,-179 -98,-296zm-1327 295c-35,-99 -91,-250 -4,-346l113 53c27,39 -29,239 -108,294zm1152 -379c39,-20 38,-4 95,-34 16,76 48,140 -75,101 -10,-18 -18,-36 -19,-67zm-962 -33c26,11 71,20 94,33 -5,88 -33,89 -114,66 -5,-45 7,-50 19,-99zm1287 46c145,63 218,35 228,266 -181,-36 -196,-154 -228,-266zm-1745 266c6,-219 99,-214 228,-267 -15,58 -34,141 -68,174 -40,40 -89,78 -160,92zm2149 -255l-16 9c-124,51 -254,5 -354,-40 51,-51 4,-10 106,-36 52,-13 160,-108 264,67zm-609 -60c32,-19 40,-11 65,-22 36,-16 16,-22 61,-40 22,37 50,88 -5,120 -65,37 -110,12 -121,-58zm-1234 -62c65,26 -5,15 91,48 60,21 -31,-14 18,6l16 9c-18,131 -220,73 -125,-62zm-484 123c116,-170 189,-88 257,-69 52,15 81,5 113,35 -91,40 -262,105 -370,34zm392 -275c12,24 11,44 25,69 24,44 22,14 40,62 -134,162 -297,-183 -65,-131zm1476 132c15,-52 11,-14 39,-57 16,-25 13,-47 31,-77 236,-47 51,296 -70,133zm98 -359c81,-24 142,-21 139,79 -4,98 -50,125 -137,110 20,-70 34,-76 10,-149l-12 -40zm-1607 187c-132,28 -166,-88 -115,-193 45,-10 70,-10 117,7 -13,88 -45,22 -2,186zm-409 -211c59,123 161,202 294,240 -37,92 21,139 53,191 -113,-17 -191,-106 -236,-165l-105 -185c-36,-84 -19,-67 -6,-80zm2080 431c33,-61 88,-94 53,-192 189,-43 250,-194 315,-245 -36,180 -203,412 -368,437zm-1275 -55c-1,49 1,55 -25,90 -63,3 -63,-22 -85,-58 -41,17 -62,11 -100,-1l-2 -71c-95,9 -120,-46 -85,-111 2,-3 5,-7 6,-10 2,-3 5,-7 7,-10 -107,-24 -109,-140 -16,-173 -89,-100 -24,-157 60,-151 -3,-94 27,-154 124,-97 35,109 -39,249 -61,348 -35,158 49,218 176,245zm1057 -497c100,-3 151,100 57,148 42,20 69,42 65,99 -4,55 -36,62 -79,85 52,72 33,125 -70,128 11,107 -67,89 -96,64 -2,3 -5,4 -6,8l-25 40c-28,27 -33,17 -70,14 -13,-41 -17,-39 -12,-85 74,-36 140,-41 168,-109 30,-75 0,-169 -24,-240 -18,-53 -58,-162 -41,-224 17,-65 137,-83 133,72zm92 -30c142,-178 288,172 54,137 -10,-67 -30,-101 -54,-137zm-1540 139c-177,8 -113,-147 -69,-176 67,-44 96,5 128,37 -44,50 -37,58 -59,139zm1740 221c55,-75 63,-139 13,-215 48,-42 112,-77 161,-117 79,-64 66,-84 129,-162 4,124 -97,330 -181,411 -39,38 -65,67 -123,83zm-2187 -485c31,28 51,88 124,150 41,35 112,83 168,112 -51,112 -43,121 14,223 -132,-31 -300,-296 -306,-485zm1842 -23c106,-142 269,4 118,117 -47,-56 -1,-37 -85,-89l-33 -28zm-1306 116c-154,-69 0,-289 113,-114 -25,27 -37,22 -66,47 -31,27 -27,36 -47,66zm-248 134c-168,-80 -292,-331 -270,-547 33,31 51,62 89,101 186,189 217,172 302,251 -99,46 -111,60 -121,195zm1926 -5l-14 -58c-21,-98 -57,-96 -115,-135 368,-259 314,-289 392,-350 9,270 -114,445 -264,543zm-1788 -221c-117,-64 -239,-177 -303,-308 -68,-139 -102,-347 -49,-508 19,352 399,451 427,674 -39,69 -53,32 -75,142zm1638 -2c-10,-105 -32,-71 -72,-140 12,-88 58,-129 108,-174 79,-71 206,-201 260,-295 47,-82 41,-115 65,-204 34,261 8,506 -182,679 -51,46 -97,110 -180,135zm-1532 -136c-30,-244 -493,-376 -388,-760 10,119 49,210 107,268 174,171 440,366 473,636 -128,-36 13,-73 -192,-143zm1427 5c-166,24 -69,86 -190,143 12,-320 441,-539 544,-742 27,-53 25,-111 45,-153 67,407 -361,485 -398,752zm-1743 -897c29,359 303,463 525,743 344,434 -112,653 19,826 23,30 17,16 53,32 56,26 33,-10 41,47 -11,5 -18,13 -52,2 -192,-61 -82,-305 -57,-398 118,-433 -231,-613 -329,-726 -108,-126 -308,-260 -199,-525zm1426 1653c-4,-113 233,30 17,-415 -219,-451 482,-744 599,-1093 15,-45 13,-106 28,-141 94,289 -136,459 -289,593 -29,25 -48,53 -77,80 -359,334 -100,645 -115,839 -6,77 -80,151 -162,138zm-779 -50c-208,-74 9,-318 49,-450 101,-334 -303,-596 -478,-802 -265,-311 -143,-358 -186,-443 -70,72 -109,112 -136,244 -21,-14 -17,-25 -33,-49 -39,80 -60,190 -63,289 -5,135 32,197 46,297 -39,-22 1,-1 -28,-24l-27 -14c-1,-3 -5,-1 -7,-1 -19,93 -6,213 15,297 -17,11 -17,-14 -30,-12 -21,152 24,204 54,332l-66 -55c26,251 114,340 235,472 -72,66 -144,55 -183,176l246 29c-13,38 -121,274 20,226 61,-21 116,-68 163,-95 6,113 21,161 84,229l90 -97c6,47 21,92 50,128 1,2 5,5 6,7l13 13c16,-23 88,-129 112,-138l14 127c-59,43 -108,59 -144,128 -54,102 -28,225 -35,338 -10,169 -19,183 24,354 -43,-23 -72,-58 -101,-105 -33,200 95,352 234,400 73,25 57,2 106,51 90,89 213,123 345,122 178,-1 240,-34 347,-132 64,-58 371,-64 339,-445 -29,39 -55,91 -103,108 36,-197 28,-168 22,-361 -1,-40 7,-75 7,-120 1,-243 -65,-244 -189,-338l16 -128c32,17 71,105 114,137 41,-36 54,-84 66,-140 50,32 46,74 97,95 36,-45 58,-115 71,-177l27 -57c38,67 125,91 199,116 21,-149 0,-128 -37,-247 66,-1 175,-11 242,-34 -20,-94 -91,-115 -159,-155 -32,-18 -6,-2 -22,-17 106,-97 227,-248 235,-463 -3,2 -7,5 -9,6l-56 41c45,-163 61,-152 55,-341l-31 34c14,-113 43,-201 9,-323 -27,26 -29,37 -57,53 24,-110 54,-176 45,-310 -8,-133 -32,-177 -64,-291l-16 66 -35 -80c-9,-28 -15,-41 -29,-66 -16,-29 -18,-32 -41,-56 -26,-26 -22,-29 -58,-39 30,219 -70,331 -184,448l-253 254c-138,138 -289,324 -207,558 48,138 248,362 30,434 -14,-74 -48,-150 -72,-223 -78,-245 -98,-490 -110,-755 41,-8 70,-12 102,-41 41,-38 25,-56 48,-85 45,-56 152,-31 193,5 1,-161 -152,-144 -287,-133 -22,-70 -47,-103 -123,-131 -59,-22 -138,-20 -196,2 -191,73 -150,112 -351,16 7,60 49,122 78,150 42,40 86,56 136,92 35,349 -17,662 -129,986 -12,34 -25,84 -47,113z"/>
    <path fill="black" d="M2825 1243c0,-37 179,-151 324,-70 15,8 28,17 43,29 96,79 172,256 108,383 -34,68 -116,134 -197,141l-105 -173c-16,-29 -20,-30 -36,-61 -21,-40 -137,-225 -137,-249zm-217 60c50,21 5,-12 109,-12l149 250c40,72 126,205 141,269 -2,2 -5,3 -6,7 -4,17 -42,17 -55,66 42,-3 222,-114 268,-142 191,-120 298,-297 166,-509 -67,-108 -148,-169 -289,-169 -132,0 -297,124 -431,197 -19,10 -18,5 -31,17 -22,18 -10,0 -20,28z"/>
    <path fill="black" d="M9368 3260c-60,0 -146,-33 -178,-64 -33,-32 -83,-111 -88,-166 63,-15 61,-31 119,-62 13,-7 12,-5 31,-17l333 -198c154,103 159,353 -92,475 -27,13 -92,32 -125,32zm169 -628c0,33 -198,137 -238,161 -65,39 -194,141 -269,141 -56,0 -7,-40 -85,-48l126 225c151,252 358,353 596,159 153,-124 121,-294 41,-446l-138 -236c-24,-40 -7,-35 -57,-39 10,21 24,54 24,85z"/>
    <path fill="black" d="M1557 2390c0,-103 240,-304 462,-88 94,91 141,229 64,349 -10,15 -81,89 -92,89 -28,0 -90,-62 -112,-81l-157 -133c-21,-18 -32,-24 -54,-43 -16,-13 -111,-84 -111,-94zm-181 121c129,-35 20,-108 334,149 23,19 39,30 61,48 93,78 156,120 134,176 -7,17 -40,58 -3,54 20,-2 40,-40 51,-54l198 -249c69,-109 76,-217 23,-331 -16,-35 -10,-21 -33,-52 -17,-23 -17,-26 -38,-46l-91 -66c-236,-128 -412,68 -547,243 -33,43 -75,75 -90,128z"/>
    <path fill="black" d="M821 3887c172,0 181,141 133,241l-188 -53c-36,-14 -23,-15 -66,-19 0,-92 32,-169 121,-169zm-241 350c33,-9 20,1 43,-42l17 -31c61,0 102,12 150,31l293 93c69,27 78,17 136,57 0,107 -29,35 0,97 43,-31 31,-53 62,-143 8,-24 14,-46 23,-74 12,-41 20,-40 24,-85 -47,12 -23,11 -72,85 -89,-21 -167,-52 -254,-72l14 -72c71,-2 284,-102 372,-109 7,-84 48,-93 48,-193 -60,16 -21,31 -72,73 -26,21 -59,37 -97,48 -78,22 -146,53 -230,72 -24,-287 -278,-263 -355,-66 -16,40 -24,64 -38,106l-65 225z"/>
    <path fill="black" d="M7207 1437c-69,0 -124,-38 -95,2 17,23 66,41 89,52 46,23 69,49 127,54 -9,-33 -2,-18 -23,-37 -1,0 -33,-21 -37,-23 6,-77 101,-233 144,-315l23 -49c14,-27 17,-22 26,-59l125 502c12,48 27,127 44,162 28,-10 10,2 28,-20l57 -112c16,-31 20,-30 37,-71l192 -364c118,0 74,36 109,-12 -24,-6 -88,-40 -114,-55 -39,-22 -72,-43 -116,-53 9,80 60,34 60,97 0,32 -46,100 -67,138 -13,24 -12,26 -23,49l-90 187c-39,-28 -22,-17 -45,-136l-100 -480 -89 -44c-33,-18 -56,-32 -93,-40 8,75 33,8 70,112 20,54 -11,71 -74,198l-165 318z"/>
    <path fill="black" d="M9392 7159l36 0c4,-52 -2,-22 24,-60 85,0 158,58 234,92 60,27 161,66 212,102 -60,5 -103,27 -164,41 -82,18 -456,110 -512,140 34,46 217,115 279,143 59,27 273,120 296,151 24,32 7,60 -8,92 53,-4 25,19 81,-101 32,-70 55,-98 40,-129 -35,26 -27,42 -72,72l-303 -131c-30,-14 -24,-12 -48,-25l-32 -16c-2,-1 -6,-3 -8,-4 -2,-1 -5,-3 -8,-4 54,-13 99,-32 150,-43l466 -114 66 -152c7,-41 12,-19 -18,-41 -14,53 -72,109 -141,82l-363 -169c-140,-74 -90,-10 -87,-154 -47,13 -26,6 -79,126 -27,61 -37,50 -41,104z"/>
    <path fill="black" d="M3875 869l0 0zm0 0c51,12 37,14 71,38 54,39 468,325 509,336 0,-121 -159,-519 -169,-640 40,-26 17,-32 72,-36l0 -36c-83,19 -162,54 -241,72 76,104 59,-161 169,230l61 205c-67,-16 -421,-290 -495,-326 -65,-32 -152,21 -217,37l0 24c209,0 151,34 237,306 27,87 65,164 65,261 -28,15 -31,21 -72,24l0 36 197 -57c43,-14 32,9 45,-40 -61,1 -105,58 -154,-160 -14,-60 -22,-84 -38,-131 -12,-37 -34,-106 -38,-143z"/>
    <path fill="black" d="M6809 1292c-341,0 -201,-437 -90,-549 43,-43 -33,29 12,-12 170,-154 451,30 255,424 -33,65 -94,137 -177,137zm-326 -302c0,417 517,484 656,124 136,-352 -222,-584 -462,-450 -107,60 -193,184 -193,326z"/>
    <path fill="black" d="M616 6459c-49,0 -59,-11 -60,-72l-36 0c4,43 17,69 29,116 12,47 21,83 31,126l24 -97c38,-9 60,-25 99,-33l323 -87c-10,39 -97,153 -129,197l-233 322c29,124 27,169 72,181 0,-141 7,-149 216,-194 121,-26 237,-84 363,-84 15,28 21,31 24,72l36 0c-16,-70 -54,-167 -60,-241l-36 0 12 85c-75,50 -233,75 -330,104 -45,13 -77,27 -128,28l363 -507c102,-130 -59,-48 -225,-7 -65,16 -311,92 -355,92z"/>
    <path fill="black" d="M9960 3392c-43,10 -88,38 -136,57 -108,43 -321,138 -419,160 -11,-16 -15,-24 -30,-42 -25,-30 -4,-20 -42,-30 5,59 24,78 43,126l100 250c19,49 38,77 50,131 66,-15 112,-12 193,-12 -16,-58 -21,-27 -89,-43 -116,-28 -164,-236 -164,-258 0,-31 215,-102 254,-121 9,40 50,108 72,205l-11 13c-7,7 -3,7 -18,18 -20,14 -19,11 -43,17l0 36c47,-4 76,-27 125,-44 29,-10 35,-11 61,-24 53,-26 38,-6 43,-53 -105,51 -126,-38 -152,-113 -13,-38 -21,-45 -29,-80 74,-17 172,-79 241,-85 35,150 72,106 72,266 -33,22 -56,35 -60,85 41,-10 34,-13 66,-30 25,-13 53,-24 78,-30 -5,-59 -24,-78 -43,-126 -10,-25 -12,-38 -22,-63l-48 -121c-10,-25 -16,-33 -26,-58 -20,-49 -40,-73 -41,-128l-36 0c4,47 12,39 12,97z"/>
    <path fill="black" d="M459 4962l50 -84c81,-1 248,33 338,46 302,42 264,27 264,135l36 0c0,-131 60,-365 72,-519l-169 -85c6,77 99,68 105,170 2,30 -32,203 -45,229 -81,-7 -187,-36 -278,-36 3,-38 20,-135 31,-174 34,-116 89,0 114,-91 -80,0 -211,-44 -254,-24 32,44 -1,5 42,31 22,14 24,17 43,30 0,75 -10,157 -24,217 -59,-14 -186,-36 -254,-36 32,-138 12,-244 84,-278 56,-26 51,11 85,-36 -28,-14 -124,-24 -169,-24 0,143 -72,370 -72,531z"/>
    <path fill="black" d="M9730 5384c0,93 16,146 70,207 39,44 115,69 195,71 48,1 362,-11 390,8 58,41 -24,66 57,88l0 -254 -36 0c0,133 -34,97 -410,97 -263,0 -240,-301 -132,-349 81,-36 369,-25 470,-25 71,0 72,25 72,97l36 0 0 -302 -36 0c0,65 33,98 -157,97 -230,-1 -519,-54 -519,265z"/>
    <path fill="black" d="M1026 3139c-40,11 -56,33 -78,67 -88,139 -44,319 150,319 69,0 188,-99 257,-141 213,-130 258,83 134,195 -115,104 -170,-16 -222,55 77,18 154,90 229,97 -26,-107 -5,-48 66,-152 53,-77 81,-184 34,-262 -77,-129 -202,-111 -315,-31 -102,72 -220,174 -292,107 -67,-62 0,-230 145,-230 66,0 69,29 109,12 -15,-41 -12,-24 -101,-68 -49,-25 -72,-39 -129,-52 4,47 11,31 12,85z"/>
    <path fill="black" d="M845 7280c-30,-20 -50,-33 -60,-72 -39,29 -35,-11 17,116 20,49 44,75 55,126l10 -96c65,-43 141,-80 218,-111 141,-56 257,-175 385,-20 190,231 -171,326 -351,416 -62,31 -42,28 -117,28 -26,-39 -20,-8 -24,-60l-36 0 100 226c24,50 9,47 57,52 -18,-68 -24,6 -24,-97 123,-82 331,-139 443,-233 187,-155 -16,-468 -166,-468 -163,0 -355,158 -507,193z"/>
    <path fill="black" d="M4769 893c20,-84 66,-185 72,-266 26,30 128,185 133,241 -34,0 -184,14 -205,24zm-205 290c32,16 65,4 117,-3 15,-2 43,-4 65,-8 46,-8 34,12 47,-37 -149,0 -51,-84 -48,-193 79,-7 180,-24 266,-24 43,81 72,103 72,169 -2,1 -32,15 -33,15 -23,16 -17,5 -27,33 100,0 177,-24 278,-24l0 -36c-78,0 -93,-23 -145,-121l-268 -480c-24,-33 5,-21 -46,-27 -15,30 -13,59 -26,95 -52,147 -107,380 -148,491 -67,179 -44,68 -104,150z"/>
    <path fill="black" d="M2294 1763c81,19 160,90 241,109l-169 145 -72 -254zm72 604c49,-11 157,-110 166,-124 7,-12 28,-31 -28,-18 -32,7 -22,9 -65,9l-48 -157c34,-51 188,-169 193,-169 4,0 157,64 157,97 0,42 -21,17 -36,72 52,-4 96,-57 148,-106 20,-19 65,-44 72,-61 26,-61 -33,-2 -75,-2 -52,0 -412,-200 -495,-242 -213,-106 -190,-130 -83,216 10,32 17,66 30,103l81 282c10,64 -10,31 -16,99z"/>
    <path fill="black" d="M8282 1811c-54,-4 -59,-26 -133,-84 -31,-24 -24,-5 -36,-49 45,-11 179,-94 229,-121 -7,30 -8,24 -16,56 -6,22 -10,47 -15,70 -12,54 -28,72 -29,128zm-519 -48c11,40 0,20 50,59 48,37 76,73 131,86 -6,-67 -92,-76 20,-137 117,-64 80,-59 191,23 25,19 25,20 47,38 21,17 37,26 57,40 -3,40 -14,60 -24,97 -13,50 -11,47 -36,84 -37,-9 -35,-15 -72,-24 4,43 11,40 37,59 22,17 39,28 63,46 50,37 80,72 129,76 -18,-69 -36,-10 -36,-97 0,-102 157,-572 157,-688 -42,10 -132,66 -174,92l-426 239c-64,28 -44,9 -112,8z"/>
    <path fill="black" d="M9851 6688l48 -205 205 169c-70,16 -170,36 -254,36zm-217 -278c62,-7 14,8 40,-20 16,-17 5,-82 112,1 39,31 31,31 77,56 -17,35 -42,148 -55,199 -14,57 -13,67 -199,67 -11,-47 -11,-25 0,-72l-36 0c-19,83 -60,171 -60,266 37,-13 29,-27 57,-52 25,-22 54,-28 90,-31l420 -51c62,-6 142,-29 207,-35 -13,-49 -76,-81 -143,-135l-311 -245c-79,-62 -114,-78 -114,-164l-85 217z"/>
    <path fill="black" d="M435 5324l36 0c3,-125 88,-59 166,-34l222 92c43,16 70,17 107,50l-171 70c-25,12 3,0 -24,12 -15,6 -24,9 -35,13 -46,17 -71,32 -118,51 -54,22 -52,35 -135,35 -17,-73 -8,-61 -36,-72 -31,64 -12,204 -12,290l36 0c4,-43 11,-59 41,-80 21,-15 61,-35 87,-45l548 -237 0 -36c-50,-4 -47,-14 -89,-31 -36,-15 -52,-17 -88,-33l-444 -184c-37,-23 -51,-30 -55,-78l-36 0 0 217z"/>
    <path fill="black" d="M5360 809c0,92 53,188 99,239 108,116 311,127 417,48 17,-13 37,-37 55,-54 32,-31 41,-26 45,-76 -93,25 -72,121 -241,121 -91,0 -125,-20 -173,-69 -108,-111 -81,-376 10,-479 22,-24 -2,-5 31,-29 92,-68 292,-75 348,167l24 -241c-36,10 -27,0 -36,36 -72,0 -296,-148 -486,69 -50,57 -93,166 -93,269z"/>
    <path fill="black" d="M10286 4394l-431 76c-39,7 -98,21 -148,21 -19,-28 -32,-39 -36,-84l-24 0c0,112 47,313 67,452 9,62 -26,103 223,103l0 -24c-61,-14 -122,-27 -154,-88 -35,-66 -39,-164 -39,-250 76,-2 432,-85 567,-85 18,34 26,54 36,97l24 0c0,-94 -42,-239 -48,-314l-24 0c0,57 -2,54 -12,97z"/>
    <path fill="black" d="M8873 1847c0,54 -57,89 -94,124l-151 151c-27,22 -33,22 -60,48 -184,179 -93,76 -202,64 13,48 49,65 79,102l183 191c44,44 54,55 88,106 41,-9 5,3 43,-17l150 -92c-106,2 -96,56 -202,-3l-47 -37c-163,-156 -122,-138 95,-330 86,-76 108,-125 214,-196 25,13 28,16 54,32 143,94 -73,-130 -81,-138 -17,-17 -120,-145 -99,-59 8,33 30,17 30,56z"/>
    <path fill="black" d="M9706 5903c0,180 160,198 304,215 328,39 336,17 336,147 37,-10 37,11 48,-133 5,-71 13,-108 13,-180l-24 0c-4,53 -14,63 -36,97 -112,-2 -347,-49 -472,-59 -87,-7 -114,6 -120,-61 42,-10 63,-18 97,-36l0 -72c-34,-17 -53,-28 -91,-8 -31,17 -54,49 -54,92z"/>
    <path fill="black" d="M592 6036l-72 0c-13,-26 -21,-48 -24,-85l-24 0c0,73 2,98 12,157 8,46 23,110 24,157 63,-47 -25,-84 79,-114l549 -67c17,32 23,35 24,85l36 0c-7,-81 -28,-137 -35,-242 -4,-57 13,-46 -37,-60 0,124 13,97 -221,129l-310 40z"/>
    <path fill="black" d="M6145 507c45,4 57,17 85,36 0,100 -55,401 -79,512 -18,84 -20,79 -114,79l0 24c47,4 86,19 140,29 59,11 97,19 162,19l0 -24c-49,-11 -49,-12 -85,-36l79 -500c20,-91 9,-92 114,-92 -14,-53 9,-25 -133,-48 -61,-10 -98,-24 -169,-24l0 24z"/>
    <path fill="black" d="M1147 2885c97,-26 18,-109 220,22 44,28 85,48 127,78 42,30 83,54 124,81 53,35 109,47 109,109 0,60 -43,5 -12,72l160 -239c12,-34 14,-2 -3,-39 -25,19 -31,34 -48,60 -94,0 -125,-49 -221,-105 -28,-17 -40,-26 -66,-43l-244 -167c19,-82 55,-81 20,-91 -29,-8 -7,-17 -61,73 -20,34 -37,55 -58,87 -19,30 -43,60 -46,99z"/>
    <path fill="black" d="M10455 6893c10,-117 77,-88 -52,-165 -35,-21 -44,-36 -93,-40 11,40 39,72 64,105 32,43 37,71 81,100z"/>
   </g>
   <g>
    <path fill="#FEFEFE" d="M5933 6272c48,-107 86,-194 80,-334 -9,8 -8,7 -18,20l-10 15c-119,188 -109,110 -197,200 -11,-122 4,-242 -79,-316 -72,35 -125,126 -151,221 -35,-140 -38,-196 -127,-282 -71,48 -112,167 -127,284 -14,-44 -39,-93 -62,-133 -27,-48 -41,-75 -104,-92 -62,136 -60,144 -65,314 -134,-58 -168,-155 -211,-209l-16 -15c-1,178 46,202 77,327 -71,-16 -78,-34 -128,-53 34,111 124,225 246,246 -12,-86 -32,-127 -14,-218 70,-14 173,46 225,88l53 49c1,-2 5,4 8,6 16,-89 61,-179 117,-219 59,45 95,135 115,218 77,-60 106,-118 286,-150 12,114 -9,132 -14,227 128,-21 200,-137 246,-246 -42,6 -65,40 -133,51z"/>
    <path fill="#FEFEFE" d="M5070 6290c-38,230 138,349 362,349 219,0 391,-114 361,-347 -137,12 -194,122 -262,188 -24,-98 -33,-190 -99,-247 -64,54 -84,143 -98,252 -49,-47 -109,-174 -264,-195z"/>
    <path fill="#FEFEFE" d="M5580 5892c60,-31 54,-69 142,-105 76,68 91,192 94,310 132,-52 248,-400 137,-557 -73,-103 -398,-211 -373,352z"/>
    <path fill="#FEFEFE" d="M5282 5888c6,-130 2,-260 -63,-350 -60,-83 -194,-113 -288,-28 -143,131 -33,523 117,586 -4,-136 20,-221 87,-310 31,8 58,25 81,45 38,33 32,46 67,57z"/>
    <path fill="#FEFEFE" d="M5826 4738c82,13 156,-60 162,-138 15,-194 -244,-505 115,-839 29,-27 48,-55 77,-80 154,-134 383,-304 289,-593 -15,35 -13,96 -28,141 -117,349 -818,642 -599,1093 216,445 -21,302 -17,415z"/>
    <path fill="#FEFEFE" d="M4928 4336c-25,93 -135,337 57,398 34,11 41,3 52,-2 -8,-56 15,-21 -41,-47 -35,-16 -30,-2 -53,-32 -131,-173 325,-392 -19,-826 -222,-280 -496,-384 -525,-743 -109,265 91,399 199,525 98,114 447,294 329,726z"/>
    <path fill="#FEFEFE" d="M4610 4114c22,-110 37,-73 75,-142 -28,-223 -408,-322 -427,-674 -53,161 -19,368 49,508 64,131 185,245 303,308z"/>
    <path fill="#FEFEFE" d="M6248 4112c82,-25 129,-88 180,-135 190,-173 216,-418 182,-679 -24,89 -18,122 -65,204 -54,94 -181,224 -260,295 -50,45 -96,86 -108,174 40,69 62,35 72,140z"/>
    <path fill="#FEFEFE" d="M6052 4727c102,-3 122,-55 70,-128 44,-23 75,-31 79,-85 4,-58 -23,-79 -65,-99 95,-48 43,-150 -57,-148 4,-155 -116,-137 -133,-72 -16,62 24,171 41,224 24,71 54,165 24,240 -28,68 -94,74 -168,109 -5,46 -2,43 12,85 37,4 42,13 70,-14l25 -40c1,-5 3,-6 6,-8 29,24 107,43 96,-64z"/>
    <path fill="#FEFEFE" d="M5023 4764c-128,-27 -212,-87 -176,-245 22,-99 96,-239 61,-348 -97,-57 -127,3 -124,97 -84,-5 -149,52 -60,151 -93,32 -91,149 16,173 -2,4 -5,8 -7,10 -2,3 -4,7 -6,10 -35,65 -10,120 85,111l2 71c38,12 60,17 100,1 21,36 21,61 85,58 25,-35 24,-41 25,-90z"/>
    <path fill="#FEFEFE" d="M4716 3976c205,70 65,108 192,143 -33,-270 -298,-465 -473,-636 -59,-58 -98,-149 -107,-268 -105,385 358,517 388,760z"/>
    <path fill="#FEFEFE" d="M6143 3982c37,-267 466,-345 398,-752 -20,42 -18,100 -45,153 -103,203 -532,422 -544,742 121,-57 24,-119 190,-143z"/>
    <path fill="#FEFEFE" d="M4472 4340c10,-135 22,-149 121,-195 -86,-79 -116,-62 -302,-251 -38,-38 -56,-70 -89,-101 -21,215 103,466 270,547z"/>
    <path fill="#FEFEFE" d="M6398 4335c150,-99 273,-273 264,-543 -78,62 -25,92 -392,350 57,39 94,37 115,135l14 58z"/>
    <path fill="#FEFEFE" d="M6372 4598c58,-16 83,-45 123,-83 84,-81 185,-288 181,-411 -63,78 -50,98 -129,162 -49,40 -113,75 -161,117 50,77 42,140 -13,215z"/>
    <path fill="#FEFEFE" d="M4309 4262c-73,-62 -93,-121 -124,-150 6,188 174,453 306,485 -57,-103 -65,-112 -14,-223 -56,-29 -127,-76 -168,-112z"/>
    <path fill="#FEFEFE" d="M6298 4819c165,-26 332,-257 368,-437 -65,51 -126,203 -315,245 35,98 -21,131 -53,192z"/>
    <path fill="#FEFEFE" d="M4511 4628c-133,-37 -235,-117 -294,-240 -13,13 -29,-5 6,80l105 185c45,59 122,148 236,165 -32,-51 -90,-99 -53,-191z"/>
    <path fill="#FEFEFE" d="M6040 4974c-10,118 35,224 98,296 82,-117 69,-220 27,-350 -22,11 -113,46 -125,54z"/>
    <path fill="#FEFEFE" d="M4713 5269c79,-54 136,-254 108,-294l-113 -53c-87,97 -31,248 4,346z"/>
    <path fill="#FEFEFE" d="M5876 5003c4,74 -7,130 21,194 24,55 47,95 93,119 27,-101 48,-221 -2,-329 -32,11 -64,19 -111,16z"/>
    <path fill="#FEFEFE" d="M4883 5318c98,-129 101,-115 101,-313 -61,1 -69,-7 -115,-19 -17,105 -55,243 14,332z"/>
    <path fill="#FEFEFE" d="M6594 4913c-104,-175 -212,-80 -264,-67 -103,26 -55,-16 -106,36 100,45 230,91 354,40l16 -9z"/>
    <path fill="#FEFEFE" d="M6190 4902c32,112 47,230 228,266 -10,-231 -83,-203 -228,-266z"/>
    <path fill="#FEFEFE" d="M4268 4913c108,71 279,6 370,-34 -32,-30 -61,-20 -113,-35 -68,-19 -141,-101 -257,69z"/>
    <path fill="#FEFEFE" d="M4445 5168c71,-14 120,-52 160,-92 34,-34 53,-116 68,-174 -129,53 -222,48 -228,267z"/>
    <path fill="#FEFEFE" d="M6172 4237c24,35 44,70 54,137 234,36 88,-314 -54,-137z"/>
    <path fill="#FEFEFE" d="M4632 4377c22,-81 15,-89 59,-139 -31,-31 -61,-81 -128,-37 -44,29 -109,184 69,176z"/>
    <path fill="#FEFEFE" d="M6136 4770c121,162 305,-181 70,-133 -18,30 -15,52 -31,77 -27,43 -24,5 -39,57z"/>
    <path fill="#FEFEFE" d="M4660 4638c-233,-53 -70,293 65,131 -18,-47 -16,-18 -40,-62 -14,-25 -13,-45 -25,-69z"/>
    <path fill="#FEFEFE" d="M4627 4599c-43,-164 -11,-98 2,-186 -47,-17 -72,-17 -117,-7 -51,105 -17,220 115,193z"/>
    <path fill="#FEFEFE" d="M6235 4600c88,15 134,-12 137,-110 4,-100 -58,-103 -139,-79l12 40c23,72 9,79 -10,149z"/>
    <path fill="#FEFEFE" d="M4720 4206c21,-31 16,-39 47,-66 29,-26 41,-20 66,-47 -113,-175 -267,45 -113,114z"/>
    <path fill="#FEFEFE" d="M6060 4118c84,52 38,33 85,89 151,-114 -12,-260 -118,-117l33 28z"/>
    <path fill="#FEFEFE" d="M5498 3615c18,106 228,101 236,-16 -36,5 -69,16 -108,18 -48,3 -89,-10 -127,-3z"/>
    <path fill="#FEFEFE" d="M5985 4853c11,70 56,94 121,58 56,-31 27,-83 5,-120 -44,18 -24,23 -61,40 -26,11 -34,3 -65,22z"/>
    <path fill="#FEFEFE" d="M4752 4791c-95,135 106,193 125,62l-16 -9c-49,-20 42,15 -18,-6 -96,-33 -26,-22 -91,-48z"/>
    <path fill="#FEFEFE" d="M4903 4856c-12,49 -25,54 -19,99 81,23 109,22 114,-66 -24,-13 -69,-22 -94,-33z"/>
    <path fill="#FEFEFE" d="M5865 4889c2,31 9,49 19,67 123,39 92,-26 75,-101 -57,30 -56,14 -95,34z"/>
    <path fill="#FEFEFE" d="M5536 3601c274,-1 264,-113 413,-42 -14,-47 -37,-71 -95,-80 -165,-26 -170,11 -272,85 -9,6 -14,9 -23,16 -15,12 -13,10 -23,20z"/>
    <path fill="#FEFEFE" d="M5424 3433c86,-20 96,88 -7,56 -12,-15 -11,-34 7,-56zm-330 7c24,45 77,92 155,100 115,834 -296,1189 -196,1827 61,30 149,29 217,168 54,111 47,215 43,346 19,-22 35,-55 52,-81 13,-20 18,-26 31,-42l37 -35c56,43 71,104 116,162 1,-129 -12,-232 40,-344 41,-89 105,-150 219,-165 103,-584 -217,-796 -207,-1658 -79,-24 -116,-34 -130,-122 91,-28 144,-70 181,-131 -39,-140 -184,-146 -271,-100 -109,57 -134,126 -286,75z"/>
   </g>
  </g>
 </g>
</svg>
